<?xml version="1.0" standalone="no"?>
<!DOCTYPE svg PUBLIC "-//W3C//DTD SVG 20010904//EN"
 "http://www.w3.org/TR/2001/REC-SVG-20010904/DTD/svg10.dtd">
<svg version="1.0" xmlns="http://www.w3.org/2000/svg"
 width="490.000000pt" height="103.000000pt" viewBox="0 0 490.000000 103.000000"
 preserveAspectRatio="xMidYMid meet">

<g transform="translate(0.000000,103.000000) scale(0.100000,-0.100000)"
fill="#000000" stroke="none">
<path d="M91 1019 c-17 -4 -38 -13 -47 -20 -42 -34 -44 -61 -44 -491 0 -391 1
-415 20 -445 37 -61 -21 -58 1020 -58 l955 0 0 508 0 507 -937 3 c-515 1 -951
-1 -967 -4z m1272 -236 c38 -22 77 -93 77 -141 l0 -33 -52 3 c-51 3 -52 4 -59
37 -8 40 -22 51 -69 51 -46 0 -58 -9 -66 -47 -8 -39 16 -56 101 -73 74 -15
110 -33 132 -66 38 -59 34 -185 -9 -239 -11 -14 -36 -32 -55 -40 -44 -19 -143
-19 -186 -1 -61 25 -107 102 -107 179 0 28 1 28 52 25 50 -3 53 -4 59 -37 10
-49 38 -72 89 -73 49 0 80 26 80 66 0 38 -23 55 -102 75 -43 11 -87 25 -98 31
-73 39 -83 213 -16 269 52 43 166 50 229 14z m-830 -6 c41 -27 61 -74 60 -140
-1 -32 -8 -67 -15 -79 -13 -20 -12 -25 9 -56 29 -44 32 -139 5 -191 -33 -67
-57 -76 -213 -79 l-139 -4 0 287 0 287 133 -4 c106 -2 138 -7 160 -21z m502
-37 l0 -55 -122 -3 -123 -3 0 -49 0 -50 113 0 112 0 0 -53 -1 -52 -112 -3
-112 -3 0 -64 0 -65 125 0 125 0 0 -55 0 -55 -180 0 -180 0 0 285 0 285 178
-2 177 -3 0 -55z m810 0 l0 -55 -45 -2 c-25 -1 -53 -2 -62 -2 -17 -1 -18 -19
-18 -226 l0 -225 -55 0 -55 0 -1 203 c-1 111 0 212 1 225 1 21 -2 22 -64 22
l-66 0 0 60 0 60 183 -2 182 -3 0 -55z"/>
<path d="M350 635 l0 -56 62 3 c58 3 62 5 71 31 6 19 6 37 -2 53 -9 21 -17 24
-71 24 l-60 0 0 -55z"/>
<path d="M358 474 c-5 -4 -8 -36 -8 -71 l0 -63 59 0 c41 0 65 5 75 16 17 16
21 80 8 101 -9 15 -123 29 -134 17z"/>
<path d="M2282 798 c-62 -14 -117 -71 -138 -144 -24 -85 -16 -262 15 -327 32
-66 82 -98 163 -104 114 -8 188 54 204 171 l7 46 -51 0 c-50 0 -51 -1 -57 -34
-10 -50 -38 -76 -84 -76 -81 0 -119 75 -108 215 8 114 38 155 111 155 40 0 72
-25 82 -65 6 -23 11 -25 56 -25 l50 0 -7 38 c-21 118 -119 179 -243 150z"/>
<path d="M4045 795 c-59 -16 -108 -66 -128 -129 -19 -65 -16 -261 6 -318 46
-119 188 -166 277 -91 l30 25 0 -26 c0 -24 4 -26 40 -26 l40 0 0 155 0 155
-100 0 -100 0 0 -50 0 -50 44 0 c53 0 59 -7 45 -49 -19 -54 -83 -75 -138 -46
-49 25 -72 139 -52 250 13 73 43 105 99 105 49 0 80 -23 88 -65 6 -34 7 -35
56 -35 l51 0 -5 50 c-11 115 -125 180 -253 145z"/>
<path d="M2595 792 c-3 -3 -5 -131 -5 -284 l0 -278 55 0 55 0 0 119 0 119 70
4 c39 2 75 2 80 0 6 -2 10 -54 10 -123 l0 -119 50 0 50 0 0 280 0 280 -50 0
-50 0 0 -105 0 -106 -81 3 -82 3 2 103 2 102 -28 1 c-15 0 -38 2 -51 3 -12 2
-24 0 -27 -2z"/>
<path d="M3151 785 c-8 -11 -151 -526 -151 -544 0 -7 20 -11 49 -11 39 0 51 4
55 18 3 9 10 36 16 60 l11 43 72 -3 71 -3 14 -57 14 -58 55 0 c52 0 55 1 50
23 -4 12 -39 138 -79 279 l-73 256 -48 4 c-27 2 -52 -1 -56 -7z m85 -292 l6
-43 -41 0 c-23 0 -41 5 -41 11 0 12 28 126 36 149 7 17 30 -51 40 -117z"/>
<path d="M3488 792 l-28 -3 0 -280 0 -279 50 0 50 0 2 168 3 167 82 -167 82
-168 50 0 51 0 0 279 0 279 -42 4 c-24 3 -46 3 -50 1 -5 -2 -8 -79 -9 -171 l0
-167 -82 165 c-45 91 -83 167 -84 169 -4 6 -44 7 -75 3z"/>
<path d="M4380 510 l0 -280 180 0 180 0 0 55 0 55 -125 0 -125 0 0 65 0 65
110 0 110 0 0 55 0 55 -110 0 -110 0 0 55 0 55 120 0 120 0 0 50 0 50 -175 0
-175 0 0 -280z"/>
</g>
</svg>
