<?xml version="1.0" standalone="no"?>
<!DOCTYPE svg PUBLIC "-//W3C//DTD SVG 20010904//EN"
 "http://www.w3.org/TR/2001/REC-SVG-20010904/DTD/svg10.dtd">
<svg version="1.0" xmlns="http://www.w3.org/2000/svg"
 width="300.000000pt" height="300.000000pt" viewBox="0 0 300.000000 300.000000"
 preserveAspectRatio="xMidYMid meet">

<g transform="translate(0.000000,300.000000) scale(0.100000,-0.100000)"
fill="#000000" stroke="none">
<path d="M0 1505 l0 -595 1500 0 1500 0 0 595 0 595 -1500 0 -1500 0 0 -595z
m1485 480 c31 -30 32 -66 2 -101 l-24 -27 20 -79 c18 -70 22 -78 44 -78 14 0
26 7 29 18 3 9 15 35 27 56 11 22 23 53 27 70 3 18 13 32 23 34 26 5 32 -26
10 -51 -11 -12 -26 -38 -33 -57 -7 -19 -17 -39 -22 -45 -18 -20 -5 -25 68 -25
68 0 76 2 81 20 3 12 21 27 39 35 47 19 61 53 39 94 -20 39 -12 85 18 106 60
42 134 -13 120 -89 -5 -23 3 -36 53 -83 33 -31 70 -62 83 -70 18 -10 107 -13
412 -13 l388 0 28 -24 28 -24 5 -181 c3 -100 2 -195 -3 -211 -4 -17 -20 -38
-34 -47 -25 -17 -66 -18 -493 -19 -407 -1 -473 -3 -530 -18 -36 -9 -81 -21
-101 -27 -32 -8 -37 -14 -42 -46 -6 -33 -2 -42 25 -71 21 -21 38 -30 48 -26 8
4 35 10 60 13 36 5 49 12 67 40 12 18 21 37 18 41 -8 12 23 33 40 26 22 -8 18
-32 -8 -49 -13 -9 -30 -30 -37 -47 -11 -27 -11 -34 2 -46 13 -13 36 -7 199 52
101 36 190 71 198 77 10 9 16 7 26 -6 11 -15 14 -16 25 -2 15 18 39 19 63 1
17 -13 17 -15 -4 -35 -28 -26 -30 -26 -62 -1 -14 11 -30 20 -35 20 -9 0 -128
-45 -312 -117 -36 -14 -73 -32 -82 -41 -16 -13 -18 -13 -24 1 -5 15 -8 15 -21
2 -17 -17 -89 -20 -98 -4 -4 5 1 19 11 30 9 10 15 22 12 25 -7 6 -48 -35 -48
-48 0 -4 -7 -8 -15 -8 -8 0 -12 6 -9 13 2 7 -13 29 -34 50 l-38 38 -29 -23
c-21 -16 -46 -23 -89 -26 -53 -3 -66 0 -99 22 l-39 27 -91 -52 -92 -53 -113 1
c-62 0 -115 3 -119 6 -10 11 25 56 56 72 42 21 43 45 4 81 -33 31 -44 76 -23
89 6 3 10 1 10 -5 0 -7 18 -10 46 -9 30 2 48 -2 54 -11 7 -11 11 -11 24 -1 14
12 16 10 16 -12 0 -18 -10 -34 -30 -49 -32 -24 -43 -78 -16 -78 8 0 28 -11 44
-24 l29 -25 87 53 87 52 3 62 2 62 -50 1 c-28 1 -130 2 -226 3 -156 2 -178 0
-200 -17 -24 -18 -24 -18 -32 3 -8 20 -14 22 -91 20 -45 -2 -123 -2 -173 -1
l-91 1 -37 65 c-21 35 -47 67 -57 70 -11 4 -27 18 -36 31 -14 22 -14 26 0 42
28 30 57 106 57 148 0 24 -10 61 -25 90 -14 27 -25 50 -25 52 0 1 108 2 240 2
185 0 240 3 240 13 0 31 -14 54 -41 70 -26 15 -30 22 -27 54 6 77 103 86 122
12 7 -30 19 -42 70 -72 58 -33 62 -34 90 -20 16 8 41 13 56 10 23 -5 36 4 96
64 58 59 69 74 70 106 2 67 72 96 119 48z m-1139 -237 c118 -55 154 -212 77
-329 -29 -45 -25 -66 16 -84 28 -12 125 -170 117 -190 -9 -25 -67 -55 -86 -45
-24 13 -112 156 -109 177 2 10 -1 28 -5 40 -7 21 -11 22 -71 16 -119 -11 -198
42 -231 154 -31 106 13 208 110 258 62 31 121 32 182 3z m-42 -552 c16 -24 16
-28 3 -23 -9 3 -28 -4 -44 -15 l-28 -22 28 31 c19 21 26 35 21 49 -9 23 -4 18
20 -20z m1866 -56 c17 0 41 5 53 11 21 10 21 9 -2 -10 -33 -29 -83 -27 -118 5
l-28 25 32 -15 c18 -9 46 -16 63 -16z m-1339 -70 c10 0 30 16 45 35 35 46 43
38 10 -11 -19 -28 -23 -42 -16 -55 6 -10 10 -27 10 -38 0 -14 13 -27 43 -42
48 -25 34 -38 -22 -19 -23 7 -45 8 -61 2 -36 -13 -68 -1 -90 33 l-19 29 24 32
c21 27 24 40 20 81 l-5 48 22 -47 c14 -31 28 -48 39 -48z m1679 76 c0 -3 -4
-8 -10 -11 -5 -3 -10 -1 -10 4 0 6 5 11 10 11 6 0 10 -2 10 -4z m-2296 -31
c-7 -16 -24 -21 -24 -6 0 8 7 13 27 20 1 1 0 -6 -3 -14z m2671 -85 c0 -22 -29
-18 -33 3 -3 14 1 18 15 15 10 -2 18 -10 18 -18z m-2274 -6 c10 -13 10 -17 -2
-25 -18 -12 -26 -11 -34 1 -8 13 1 40 13 40 5 0 15 -7 23 -16z m1850 -78 c-14
-16 -41 -11 -41 8 0 7 5 17 12 24 19 19 46 -11 29 -32z m-231 17 c-8 -3 -23
-12 -32 -21 -11 -9 -18 -11 -18 -4 0 13 29 32 50 31 13 -1 13 -1 0 -6z m45 -3
c3 -6 -1 -7 -9 -4 -18 7 -21 14 -7 14 6 0 13 -4 16 -10z m-28 -26 c-3 -3 -12
-4 -19 -1 -8 3 -5 6 6 6 11 1 17 -2 13 -5z"/>
<path d="M1425 1980 c4 -6 11 -8 16 -5 14 9 11 15 -7 15 -8 0 -12 -5 -9 -10z"/>
<path d="M1839 1924 c-12 -14 -11 -16 5 -13 11 2 21 10 24 17 5 17 -13 15 -29
-4z"/>
<path d="M1898 1913 c-5 -21 28 -58 38 -42 9 16 -5 59 -20 59 -8 0 -16 -8 -18
-17z"/>
<path d="M885 1864 c-22 -33 -4 -60 19 -28 14 19 15 19 29 0 8 -10 19 -16 25
-12 17 10 15 36 -2 36 -8 0 -16 7 -20 15 -8 23 -32 18 -51 -11z"/>
<path d="M1321 1805 c-85 -91 -81 -99 42 -103 l98 -3 -7 38 c-29 158 -42 164
-133 68z"/>
<path d="M1915 1820 c-3 -5 -17 -10 -31 -10 -30 0 -48 -39 -39 -82 l7 -28 99
0 c54 0 99 3 99 6 0 9 -113 124 -122 124 -4 0 -10 -4 -13 -10z"/>
<path d="M963 1783 c-8 -3 -13 -22 -13 -44 l0 -39 75 0 c41 0 75 2 75 5 0 4
-80 57 -115 77 -5 3 -16 3 -22 1z"/>
<path d="M1145 1720 c-3 -5 -2 -10 4 -10 5 0 13 5 16 10 3 6 2 10 -4 10 -5 0
-13 -4 -16 -10z"/>
<path d="M487 1653 c13 -20 18 -47 18 -99 0 -65 -3 -77 -32 -118 -35 -50 -34
-72 4 -87 13 -5 42 -38 64 -74 l41 -65 724 0 724 0 0 235 0 235 -780 0 -780 0
17 -27z m193 -83 c0 -28 -3 -30 -35 -30 -32 0 -35 -2 -35 -29 0 -26 4 -30 33
-33 27 -2 32 -7 32 -28 0 -21 -5 -26 -32 -28 -29 -3 -33 -7 -33 -33 0 -27 3
-29 35 -29 32 0 35 -2 35 -30 l0 -30 -65 0 -65 0 0 150 0 150 65 0 65 0 0 -30z
m92 -2 l12 -33 8 33 c8 29 12 32 44 32 25 0 35 -4 31 -12 -2 -7 -15 -41 -27
-76 l-23 -63 27 -67 c14 -37 26 -71 26 -75 0 -4 -15 -7 -34 -7 -29 0 -34 4
-43 33 l-10 32 -13 -32 c-10 -28 -17 -33 -46 -33 l-33 0 28 77 28 77 -23 60
c-31 78 -31 86 7 86 25 0 32 -5 41 -32z m248 12 c29 -29 26 -58 -6 -66 -19 -5
-29 -2 -36 10 -18 32 -28 4 -28 -80 0 -68 3 -84 15 -84 8 0 15 5 15 10 0 6 14
10 30 10 38 0 41 -30 5 -65 -30 -30 -64 -32 -99 -4 -25 20 -26 23 -26 133 0
99 2 115 20 134 27 29 83 29 110 2z m108 -43 c4 -77 26 -72 30 7 3 56 4 57 30
54 l27 -3 3 -147 3 -148 -30 0 c-29 0 -30 1 -33 57 -4 82 -28 84 -28 3 l0 -61
-32 3 c-19 2 -33 8 -32 16 1 6 2 73 3 148 l1 135 28 -3 c26 -3 27 -6 30 -61z
m237 41 c14 -65 45 -242 45 -259 0 -30 -57 -27 -62 4 -2 14 -10 22 -23 22 -13
0 -21 -8 -23 -22 -3 -18 -10 -23 -33 -23 -35 0 -35 -3 -8 148 27 159 25 152
64 152 28 0 36 -5 40 -22z m146 -40 l24 -63 3 63 c3 62 3 63 30 60 l27 -3 3
-147 3 -148 -30 0 c-27 0 -32 5 -48 51 l-18 51 -5 -49 c-5 -46 -7 -48 -37 -51
l-33 -3 0 144 c0 79 3 147 7 150 3 4 16 7 28 7 18 0 27 -12 46 -62z m249 42
c29 -29 26 -58 -6 -66 -19 -5 -29 -2 -36 10 -18 32 -28 4 -28 -80 0 -68 3 -84
15 -84 9 0 15 9 15 25 0 14 -5 25 -11 25 -6 0 -9 12 -7 28 3 23 8 27 41 30
l37 3 0 -70 c0 -63 -2 -71 -26 -90 -35 -28 -69 -26 -99 4 -23 22 -25 31 -25
128 0 90 3 108 21 131 26 33 79 36 109 6z m185 -10 c0 -22 -5 -25 -37 -28 -34
-3 -38 -6 -38 -32 0 -25 4 -29 33 -32 27 -2 32 -7 32 -28 0 -21 -5 -26 -32
-28 -29 -3 -33 -7 -33 -33 0 -26 3 -29 34 -29 26 0 36 -5 41 -20 10 -33 -3
-40 -71 -40 l-64 0 0 150 0 151 68 -3 c64 -3 67 -4 67 -28z"/>
<path d="M1322 1440 c0 -19 2 -27 5 -17 2 9 2 25 0 35 -3 9 -5 1 -5 -18z"/>
<path d="M2132 1578 c-17 -22 -23 -73 -13 -101 6 -15 26 -34 46 -44 30 -14 35
-22 35 -50 0 -35 -22 -46 -37 -18 -5 9 -17 12 -31 8 -17 -4 -21 -10 -16 -27 8
-29 33 -46 66 -46 43 0 68 32 68 85 0 46 -2 50 -64 99 -20 15 -27 28 -23 39 7
18 37 24 37 7 0 -16 40 -11 47 5 9 26 -26 55 -67 55 -21 0 -42 -6 -48 -12z"/>
<path d="M2290 1461 c0 -123 1 -131 22 -145 24 -17 65 -21 85 -8 23 15 33 65
33 173 l0 109 -25 0 c-24 0 -24 0 -27 -117 -3 -103 -5 -118 -20 -121 -16 -3
-18 8 -18 117 l0 121 -25 0 -25 0 0 -129z"/>
<path d="M2470 1445 l0 -145 25 0 c24 0 25 2 26 68 l1 67 15 -38 c20 -46 42
-45 59 3 l12 35 3 -65 c4 -59 6 -65 27 -68 22 -3 22 -3 22 142 l0 146 -23 0
c-20 0 -27 -9 -42 -60 -10 -34 -22 -63 -26 -65 -4 -3 -17 24 -30 60 -19 55
-26 65 -46 65 -23 0 -23 0 -23 -145z"/>
<path d="M2720 1571 c-5 -11 -10 -69 -10 -129 0 -122 9 -142 67 -142 54 0 63
23 63 151 0 76 -4 119 -12 127 -7 7 -31 12 -55 12 -32 0 -45 -5 -53 -19z m70
-127 c0 -74 -3 -94 -14 -94 -20 0 -26 23 -26 104 0 68 12 102 32 90 4 -3 8
-48 8 -100z"/>
<path d="M1735 1191 c-9 -16 7 -19 60 -13 42 5 46 7 25 13 -37 10 -78 10 -85
0z"/>
<path d="M1464 1148 c8 -50 26 -75 26 -37 0 38 11 47 67 53 56 6 83 -8 83 -42
1 -16 2 -16 14 0 7 10 16 15 19 11 15 -15 5 -46 -23 -75 -35 -35 -33 -49 4
-24 31 20 53 61 62 115 l7 41 -133 0 -133 0 7 -42z"/>
<path d="M1140 1110 c0 -6 7 -10 15 -10 8 0 15 2 15 4 0 2 -7 6 -15 10 -8 3
-15 1 -15 -4z"/>
<path d="M1114 970 c-12 -5 -25 -14 -29 -20 -6 -9 6 -10 46 -5 63 9 76 14 58
26 -17 11 -47 10 -75 -1z"/>
<path d="M185 1716 c-59 -27 -105 -102 -105 -168 1 -77 67 -161 136 -174 76
-14 138 11 181 76 56 81 35 191 -49 253 -34 26 -122 33 -163 13z m172 -50 c10
-9 5 -22 -18 -59 -34 -51 -49 -59 -49 -26 0 19 -4 21 -37 16 -51 -9 -84 -35
-110 -88 -17 -36 -23 -41 -28 -26 -11 28 1 97 23 126 26 36 80 71 110 71 17 0
22 4 19 14 -3 8 -3 17 0 20 6 6 66 -27 90 -48z m41 -70 c13 -64 -40 -144 -113
-172 -25 -9 -45 -23 -45 -30 0 -8 -3 -14 -8 -14 -6 0 -72 41 -91 56 -4 4 59
104 65 104 3 0 9 -11 14 -24 8 -22 13 -24 38 -17 63 18 112 64 112 103 0 24
24 19 28 -6z"/>
<path d="M764 1016 c-6 -16 11 -46 27 -46 12 0 3 54 -10 58 -6 2 -14 -4 -17
-12z"/>
<path d="M837 1023 c-4 -7 -3 -14 2 -18 6 -3 8 -12 4 -20 -3 -8 0 -15 6 -15
12 0 13 16 2 44 -5 13 -10 16 -14 9z"/>
</g>
</svg>
