<?xml version="1.0" standalone="no"?>
<!DOCTYPE svg PUBLIC "-//W3C//DTD SVG 20010904//EN"
 "http://www.w3.org/TR/2001/REC-SVG-20010904/DTD/svg10.dtd">
<svg version="1.0" xmlns="http://www.w3.org/2000/svg"
 width="327.000000pt" height="154.000000pt" viewBox="0 0 327.000000 154.000000"
 preserveAspectRatio="xMidYMid meet">

<g transform="translate(0.000000,154.000000) scale(0.100000,-0.100000)"
fill="#000000" stroke="none">
<path d="M1833 1072 c-9 -6 0 -21 32 -52 l45 -44 0 46 c0 40 3 47 23 51 12 2
-3 5 -33 5 -30 1 -61 -2 -67 -6z"/>
<path d="M2 778 l3 -273 200 0 200 0 3 63 3 62 -136 0 -136 0 3 48 3 47 97 3
98 3 0 49 0 50 -100 0 -100 0 0 50 0 50 130 0 130 0 0 60 0 60 -200 0 -200 0
2 -272z"/>
<path d="M460 1045 c0 -3 37 -60 82 -127 45 -68 81 -127 81 -133 0 -6 -37 -66
-82 -133 -45 -68 -84 -129 -88 -137 -4 -12 8 -15 65 -15 81 0 80 0 141 94 24
36 46 66 50 66 3 0 30 -36 59 -80 l52 -80 68 0 c38 0 72 3 75 6 4 4 -32 63
-79 131 -47 68 -87 130 -90 138 -3 7 30 67 73 132 44 65 83 124 87 131 5 9
-11 12 -68 12 l-75 0 -48 -70 c-26 -38 -51 -70 -54 -70 -4 0 -28 32 -55 70
l-48 70 -73 0 c-40 0 -73 -2 -73 -5z"/>
<path d="M1050 775 l0 -276 63 3 62 3 5 165 5 165 79 -130 c44 -71 90 -147
103 -168 l24 -38 67 3 67 3 3 273 2 273 -67 -3 -68 -3 -5 -149 -5 -149 -95
151 -95 152 -72 0 -73 0 0 -275z"/>
<path d="M2282 778 l3 -273 130 1 c111 1 137 4 180 23 105 46 165 137 165 251
-1 107 -50 189 -144 238 -47 24 -62 27 -194 30 l-142 4 2 -274z m266 122 c94
-58 95 -197 1 -246 -18 -9 -53 -17 -78 -18 l-46 -1 -3 143 -3 142 48 0 c30 0
60 -7 81 -20z"/>
<path d="M2865 1037 c-3 -7 -4 -129 -3 -272 l3 -260 200 0 200 0 3 63 3 62
-136 0 -136 0 3 48 3 47 100 5 100 5 3 47 3 47 -103 3 -103 3 0 45 0 45 128 3
127 3 0 59 0 60 -195 0 c-149 0 -197 -3 -200 -13z"/>
<path d="M2058 1029 c8 -9 12 -53 12 -146 l0 -133 40 0 c26 0 40 -4 40 -13 0
-20 -139 -167 -158 -167 -9 0 -40 26 -69 57 l-53 57 0 -99 0 -98 55 7 c160 18
269 137 269 291 0 103 -55 209 -129 247 -16 9 -18 8 -7 -3z"/>
<path d="M1618 870 c-5 -14 -8 -59 -6 -101 5 -80 30 -141 77 -183 l21 -19 0
160 0 161 -41 4 c-36 3 -42 1 -51 -22z"/>
<path d="M1870 820 c0 -63 2 -70 20 -70 18 0 20 7 20 70 0 63 -2 70 -20 70
-18 0 -20 -7 -20 -70z"/>
</g>
</svg>
