<?xml version="1.0" standalone="no"?>
<!DOCTYPE svg PUBLIC "-//W3C//DTD SVG 20010904//EN"
 "http://www.w3.org/TR/2001/REC-SVG-20010904/DTD/svg10.dtd">
<svg version="1.0" xmlns="http://www.w3.org/2000/svg"
 width="48.000000pt" height="48.000000pt" viewBox="0 0 48.000000 48.000000"
 preserveAspectRatio="xMidYMid meet">

<g transform="translate(0.000000,48.000000) scale(0.100000,-0.100000)"
fill="#000000" stroke="none">
<path d="M82 397 c-23 -23 -42 -47 -42 -53 0 -20 88 -97 104 -91 22 8 20 20
-5 43 -21 19 -20 19 107 24 121 5 129 6 129 25 0 19 -8 20 -129 23 l-129 3 23
24 c22 23 20 45 -4 45 -6 0 -31 -19 -54 -43z"/>
<path d="M325 219 c-4 -6 3 -21 15 -34 l23 -24 -129 -3 c-121 -3 -129 -4 -129
-23 0 -19 8 -20 129 -25 127 -5 128 -5 107 -24 -25 -23 -27 -35 -5 -43 16 -6
104 71 104 91 0 15 -82 96 -96 96 -7 0 -16 -5 -19 -11z"/>
</g>
</svg>
